<?xml version="1.0" encoding="UTF-8"?>
<svg width="847px" height="132px" viewBox="0 0 847 132" version="1.1" xmlns="http://www.w3.org/2000/svg" xmlns:xlink="http://www.w3.org/1999/xlink">
    <!-- Generator: Sketch 54.1 (76490) - https://sketchapp.com -->
    <title>invoker--mark</title>
    <desc>Created with Sketch.</desc>
    <g id="Wordmark" stroke="none" stroke-width="1" fill="none" fill-rule="evenodd">
        <g id="final" transform="translate(-2000.000000, -462.000000)" fill="#0F0F0F">
            <g id="invoker--mark" transform="translate(2000.000000, 416.000000)">
                <g id="logo/filled/dark" transform="translate(0.000000, 46.000000)">
                    <g id="filled">
                        <ellipse id="Oval" fill-rule="nonzero" cx="17.7134241" cy="114.495052" rx="17.7134241" ry="17.4589547"></ellipse>
                        <ellipse id="Oval" fill-rule="nonzero" cx="44.281229" cy="69.095331" rx="21.2570415" ry="20.9544251"></ellipse>
                        <path d="M262.544745,69.6288502 L262.544745,69.6288502 C262.544745,69.6288502 257.140729,64.7213937 247.852721,62.8494774 L247.680203,62.8126829 C247.213937,62.7160976 246.696383,62.6287108 246.188153,62.5505226 C245.885081,62.5045296 245.577346,62.4677352 245.255622,62.4263415 L244.789357,62.3665505 C241.455698,61.9666997 238.081031,62.042601 234.769313,62.5919164 L234.60612,62.5919164 C228.003801,63.6405575 216.421768,59.2390244 207.9777,52.9333798 C202.466443,48.794007 194.740424,38.6249477 193.989737,31.48223 C193.790762,29.6197669 193.449417,27.7747947 192.968616,25.9630662 C192.861375,25.5491289 192.744808,25.1351916 192.628242,24.7258537 C192.586278,24.5924739 192.55364,24.4498955 192.511676,24.3165157 C192.113426,23.0307072 191.636971,21.769745 191.084903,20.5404878 L190.949686,20.2461324 C190.772506,19.8597909 190.585999,19.4734495 190.394831,19.0917073 C190.240963,18.7881533 190.087095,18.4937979 189.928565,18.2040418 L189.784023,17.9418815 C187.061033,12.9700348 184.081596,10.408223 184.081596,10.408223 L184.081596,10.408223 C177.637897,3.98573658 168.854362,0.377343437 159.693926,0.389443258 C150.53349,0.401543079 141.759784,4.0331272 135.333545,10.4726132 L135.333545,10.4726132 C133.947867,11.7880254 132.715501,13.2520171 131.659373,14.8373519 C127.638084,20.4970904 125.48546,27.2430668 125.495344,34.1544251 C125.495344,34.3705923 125.495344,34.5867596 125.495344,34.8029268 C125.495344,35.0190941 125.495344,35.0926829 125.495344,35.2628571 C125.495344,46.9772822 123.392487,57.7442509 118.669218,63.709547 C115.046335,68.3088502 108.304137,70.5717073 100.410263,72.3654355 L100.38695,72.3654355 L100.33566,72.3654355 C98.4499912,72.8125797 96.6215298,73.4683005 94.8850174,74.3201394 C92.0397778,75.6664264 89.4213918,77.4363882 87.1216978,79.5679443 C86.8652518,79.7979094 86.7207095,79.9404878 86.7207095,79.9404878 L86.7207095,79.9404878 C78.6924963,87.6027648 75.520011,98.9633587 78.4382002,109.599955 C81.3563894,120.236552 89.9041436,128.468439 100.754097,131.091207 C111.60405,133.713976 123.041777,130.313196 130.614938,122.212683 L130.614938,122.212683 C132.001377,120.813456 133.204407,119.248206 134.195857,117.553589 C137.178014,112.78932 138.753974,107.299027 138.746608,101.699791 C138.74571,100.057386 138.61005,98.4177475 138.340957,96.7969338 C138.340957,96.769338 138.340957,96.7417422 138.340957,96.7141463 C137.287197,88.849338 138.89115,83.3761672 141.562851,79.5817422 C145.167083,74.4397213 152.436161,68.3272474 162.120494,68.3502439 C170.247501,68.3778397 178.225303,72.0572822 184.911549,77.2544948 C197.38415,86.9498258 202.713564,97.0820906 207.483459,109.449617 C207.544073,109.605993 207.609351,109.753171 207.669965,109.909547 C207.795857,110.2223 207.921748,110.535052 208.056965,110.829408 L208.094267,110.907596 C209.135593,113.273255 210.439789,115.517647 211.98292,117.599582 L211.98292,117.627178 L212.416547,118.197491 C213.348096,119.435926 214.37706,120.600082 215.493899,121.679164 C224.778608,130.850528 238.44855,134.196059 251.002578,130.369427 C263.556605,126.542795 272.930077,116.173329 275.35086,103.433977 C277.771642,90.694625 272.841612,77.6805075 262.544745,69.6288502 L262.544745,69.6288502 Z" id="Shape" fill-rule="nonzero"></path>
                    </g>
                </g>
                <text id="invoker" opacity="0.44" font-family="Masbul-Book, Masbul" font-size="172" font-weight="300" letter-spacing="-1.892">
                    <tspan x="288" y="174">invoker</tspan>
                </text>
            </g>
        </g>
    </g>
</svg>